<svg xmlns="http://www.w3.org/2000/svg" xmlns:xlink="http://www.w3.org/1999/xlink" fill="none" height="64" viewBox="0 0 81 64" width="81"><mask id="a" height="76" maskUnits="userSpaceOnUse" width="81" x="0" y="0"><path d="m.154785.1875h80v75h-80z" fill="#fff"></path></mask><g mask="url(#a)"><path d="m61.6548 35.9375c-.25.25-.5.625-.5 0 .375-1.5 1.75-3.75.5-4-2.125-.375-11 .625-11 0 0-.25 3.375-.375 4.75-1.125 1.25-1.125 1.375-1 1.375-1h3.375c3.375 0 4.75 1 1.5 6.125zm-14 2.875c-7.875 2.625-15.625 6.75-40.12501 18.875l6.50001-30.625c23.125 0 41.875-.75 42.25 2.75h-24.625l3.875 11.75c4.375-2.125 15.125-6.5 21.625-6.75 2.625-.125 3.75.375 3.25.75-.625.25-4.75.5-12.75 3.25zm-31.75-21.125h56.875l-8.5 40h-52.875s50.25-19.625 50.75-20c0 0 4.5-6 1.875-8.5-.875-.75-2-.75-6.625-.75-.25-2.5-9.75-4-41.5-10.75z" fill="#fff"></path></g></svg>