<svg xmlns="http://www.w3.org/2000/svg" xmlns:xlink="http://www.w3.org/1999/xlink" fill="none" height="64" viewBox="0 0 81 64" width="81"><mask id="a" height="76" maskUnits="userSpaceOnUse" width="81" x="0" y="0"><path d="m.577454.1875h80v75h-80z" fill="#fff"></path></mask><g mask="url(#a)"><path d="m13.6324 47.6875c-4.24998 0-5.74998-3.75-5.74998-3.75l-7.000002-13.875s-1.25-2.375 1.375002-2.375h4c1.375 0 1.75 1.125 2.375 2.375l4.62498 9.25s.625 1.625 2.625 1.625 2.625-1.625 2.625-1.625l4.625-9.25c.625-1.25 1-2.375 2.375-2.375h4c2.625 0 1.375 2.375 1.375 2.375l-7 13.875s-1.5 3.75-5.75 3.75zm49.375 0c-4.25 0-5.75-3.75-5.75-3.75l-7-13.875s-1.25-2.375 1.375-2.375h4c1.375 0 1.75 1.125 2.375 2.375l4.625 9.25s.625 1.625 2.625 1.625 2.625-1.625 2.625-1.625l4.625-9.25c.625-1.25 1-2.375 2.375-2.375h4.125c2.5 0 1.25 2.375 1.25 2.375l-7 13.875s-1.5 3.75-5.75 3.75zm-20.25-20c4.25 0 5.875 3.875 5.875 3.875l6.875 13.875s1.375 2.25-1.25 2.25h-4.125c-1.25 0-1.625-1-2.375-2.25l-4.5-9.25s-.625-1.625-2.625-1.625-2.625 1.625-2.625 1.625l-4.625 9.25c-.75 1.25-1.125 2.25-2.375 2.25h-4.125c-2.625 0-1.25-2.25-1.25-2.25l7-13.875s1.5-3.875 5.75-3.875z" fill="#fff"></path></g></svg>