<svg xmlns="http://www.w3.org/2000/svg" width="81" height="36" viewBox="0 0 81 36" fill="none"><path d="M2.76694 12.568H9.35995V15H0.0309448V1.54803H2.76694V12.568Z" fill="white"></path><path d="M15.7917 15.152C14.1704 15.152 12.9227 14.696 12.0487 13.784C11.1747 12.8594 10.7377 11.58 10.7377 9.94603C10.7377 9.1607 10.8517 8.45136 11.0797 7.81803C11.3204 7.17203 11.6497 6.62103 12.0677 6.16503C12.4984 5.70903 13.0241 5.36703 13.6447 5.13903C14.2781 4.89836 14.9937 4.77803 15.7917 4.77803C16.5771 4.77803 17.2801 4.89836 17.9007 5.13903C18.5341 5.36703 19.0661 5.70903 19.4967 6.16503C19.9401 6.62103 20.2757 7.17203 20.5037 7.81803C20.7444 8.45136 20.8647 9.1607 20.8647 9.94603C20.8647 11.5927 20.4214 12.872 19.5347 13.784C18.6607 14.696 17.4131 15.152 15.7917 15.152ZM15.7917 7.17203C14.9684 7.17203 14.3604 7.43803 13.9677 7.97003C13.5751 8.50203 13.3787 9.16703 13.3787 9.96503C13.3787 10.7757 13.5751 11.447 13.9677 11.979C14.3604 12.511 14.9684 12.777 15.7917 12.777C16.6151 12.777 17.2167 12.511 17.5967 11.979C17.9767 11.447 18.1667 10.7757 18.1667 9.96503C18.1667 9.16703 17.9767 8.50203 17.5967 7.97003C17.2167 7.43803 16.6151 7.17203 15.7917 7.17203Z" fill="white"></path><path d="M29.919 13.974C29.539 14.4047 29.083 14.7087 28.551 14.886C28.019 15.0634 27.4427 15.152 26.822 15.152C26.2013 15.152 25.5933 15.057 24.998 14.867C24.4153 14.6644 23.9087 14.3414 23.478 13.898C22.9967 13.3914 22.661 12.8087 22.471 12.15C22.281 11.4914 22.186 10.8137 22.186 10.117C22.186 8.47037 22.642 7.15303 23.554 6.16503C23.9467 5.73436 24.4533 5.3987 25.074 5.15803C25.7073 4.91736 26.385 4.80336 27.107 4.81603C27.5757 4.7907 28.0823 4.87303 28.627 5.06303C29.1717 5.25303 29.6403 5.5697 30.033 6.01303L30.318 4.98703H32.636V14.373C32.636 14.7784 32.6107 15.1774 32.56 15.57C32.522 15.9754 32.4523 16.3617 32.351 16.729C32.2497 17.109 32.0977 17.47 31.895 17.812C31.667 18.23 31.3883 18.5847 31.059 18.876C30.7423 19.1674 30.3877 19.408 29.995 19.598C29.6023 19.8007 29.1843 19.9464 28.741 20.035C28.2977 20.1237 27.848 20.168 27.392 20.168C26.8093 20.168 26.252 20.0984 25.72 19.959C25.188 19.8324 24.7003 19.617 24.257 19.313C23.8263 19.0217 23.4653 18.648 23.174 18.192C22.8953 17.736 22.7117 17.1914 22.623 16.558H25.473C25.5237 16.862 25.7263 17.1344 26.081 17.375C26.4357 17.6157 26.8663 17.736 27.373 17.736C27.9177 17.736 28.361 17.6284 28.703 17.413C29.0577 17.1977 29.3237 16.9127 29.501 16.558C29.6783 16.2034 29.7923 15.798 29.843 15.342C29.8937 14.886 29.919 14.43 29.919 13.974ZM27.43 12.777C27.848 12.777 28.2153 12.701 28.532 12.549C28.8613 12.397 29.1273 12.1944 29.33 11.941C29.5327 11.675 29.6847 11.371 29.786 11.029C29.8873 10.6744 29.938 10.3007 29.938 9.90803C29.938 9.1227 29.7163 8.4767 29.273 7.97003C28.8423 7.4507 28.2217 7.1847 27.411 7.17203C26.993 7.17203 26.6193 7.24803 26.29 7.40003C25.9733 7.55203 25.7073 7.7547 25.492 8.00803C25.2893 8.26136 25.1373 8.55903 25.036 8.90103C24.9347 9.24303 24.884 9.61037 24.884 10.003C24.884 10.421 24.9347 10.801 25.036 11.143C25.15 11.4724 25.3147 11.7637 25.53 12.017C25.7453 12.2577 26.0113 12.4477 26.328 12.587C26.6447 12.7137 27.012 12.777 27.43 12.777Z" fill="white"></path><path d="M36.2203 0.332031C36.7143 0.332031 37.1133 0.477698 37.4173 0.769032C37.7213 1.06036 37.8733 1.4467 37.8733 1.92803C37.8733 2.4347 37.7213 2.8337 37.4173 3.12503C37.1133 3.4037 36.7143 3.54303 36.2203 3.54303C35.739 3.54303 35.34 3.4037 35.0233 3.12503C34.7193 2.8337 34.5673 2.4347 34.5673 1.92803C34.5673 1.4467 34.7193 1.06036 35.0233 0.769032C35.34 0.477698 35.739 0.332031 36.2203 0.332031ZM37.5693 15H34.8903V4.98703H37.5693V15Z" fill="white"></path><path d="M43.5268 6.92503C43.3368 6.92503 43.1532 6.9377 42.9758 6.96303C42.8112 6.98836 42.6592 7.0327 42.5198 7.09603C42.3805 7.1467 42.2665 7.23536 42.1778 7.36203C42.0892 7.47603 42.0512 7.62803 42.0638 7.81803C42.0765 8.03336 42.1588 8.20436 42.3108 8.33103C42.4755 8.4577 42.7035 8.55903 42.9948 8.63503C43.2735 8.71103 43.5838 8.78703 43.9258 8.86303C44.2678 8.92636 44.6035 8.99603 44.9328 9.07203C45.2622 9.14803 45.5852 9.2367 45.9018 9.33803C46.2185 9.43936 46.4972 9.56603 46.7378 9.71803C47.0672 9.9207 47.3395 10.2057 47.5548 10.573C47.7702 10.9404 47.8715 11.39 47.8588 11.922C47.8588 12.4414 47.7702 12.891 47.5928 13.271C47.4282 13.6384 47.2002 13.955 46.9088 14.221C46.5415 14.5504 46.0792 14.791 45.5218 14.943C44.9645 15.0824 44.4008 15.152 43.8308 15.152C43.1722 15.152 42.5642 15.0824 42.0068 14.943C41.4622 14.8037 40.9618 14.5567 40.5058 14.202C40.1765 13.936 39.8978 13.613 39.6698 13.233C39.4545 12.8404 39.3278 12.3717 39.2898 11.827H41.9878C42.0638 12.2577 42.2728 12.5554 42.6148 12.72C42.9695 12.8847 43.3875 12.967 43.8688 12.967C44.0082 12.967 44.1538 12.9607 44.3058 12.948C44.4705 12.9227 44.6162 12.8847 44.7428 12.834C44.8822 12.7707 44.9962 12.682 45.0848 12.568C45.1862 12.4414 45.2368 12.3084 45.2368 12.169C45.2495 11.8397 45.1355 11.6054 44.8948 11.466C44.6668 11.3267 44.4198 11.2317 44.1538 11.181C43.8878 11.1177 43.6028 11.0544 43.2988 10.991C42.9948 10.9277 42.6908 10.8644 42.3868 10.801C42.0955 10.7377 41.8042 10.6617 41.5128 10.573C41.2215 10.4717 40.9555 10.3387 40.7148 10.174C40.3475 9.94603 40.0372 9.64203 39.7838 9.26203C39.5432 8.88203 39.4418 8.3817 39.4798 7.76103C39.5052 7.21636 39.6382 6.75403 39.8788 6.37403C40.1322 5.98136 40.4425 5.67103 40.8098 5.44303C41.1898 5.20236 41.6142 5.03136 42.0828 4.93003C42.5642 4.8287 43.0518 4.77803 43.5458 4.77803C44.0905 4.77803 44.6035 4.83503 45.0848 4.94903C45.5662 5.06303 45.9842 5.2467 46.3388 5.50003C46.7062 5.75336 46.9975 6.0827 47.2128 6.48803C47.4408 6.89336 47.5675 7.38736 47.5928 7.97003H45.0088C44.9582 7.55203 44.7935 7.27336 44.5148 7.13403C44.2488 6.9947 43.9195 6.92503 43.5268 6.92503Z" fill="white"></path><path d="M52.7246 7.32403V11.371C52.7246 12.2324 53.1616 12.663 54.0356 12.663H55.0236V15H53.7696C52.4396 15.0507 51.4833 14.7974 50.9006 14.24C50.3306 13.6827 50.0456 12.8404 50.0456 11.713V7.32403H48.5256V4.98703H50.0456V2.27003H52.7246V4.98703H55.1186V7.32403H52.7246Z" fill="white"></path><path d="M58.0406 0.332031C58.5346 0.332031 58.9336 0.477698 59.2376 0.769032C59.5416 1.06036 59.6936 1.4467 59.6936 1.92803C59.6936 2.4347 59.5416 2.8337 59.2376 3.12503C58.9336 3.4037 58.5346 3.54303 58.0406 3.54303C57.5593 3.54303 57.1603 3.4037 56.8436 3.12503C56.5396 2.8337 56.3876 2.4347 56.3876 1.92803C56.3876 1.4467 56.5396 1.06036 56.8436 0.769032C57.1603 0.477698 57.5593 0.332031 58.0406 0.332031ZM59.3896 15H56.7106V4.98703H59.3896V15Z" fill="white"></path><path d="M66.2402 12.777C66.7468 12.777 67.1458 12.6567 67.4372 12.416C67.7412 12.1754 67.9248 11.903 67.9882 11.599H70.8002C70.7115 12.245 70.5278 12.7897 70.2492 13.233C69.9705 13.6764 69.6222 14.0437 69.2042 14.335C68.7988 14.6264 68.3365 14.8354 67.8172 14.962C67.2978 15.0887 66.7595 15.152 66.2022 15.152C65.3662 15.152 64.6378 15.038 64.0172 14.81C63.4092 14.5694 62.9025 14.2274 62.4972 13.784C62.0918 13.328 61.7815 12.7834 61.5662 12.15C61.3635 11.504 61.2622 10.782 61.2622 9.98403C61.2622 9.21136 61.3762 8.50203 61.6042 7.85603C61.8322 7.21003 62.1552 6.65903 62.5732 6.20303C63.0038 5.74703 63.5295 5.3987 64.1502 5.15803C64.7708 4.9047 65.4802 4.77803 66.2782 4.77803C66.8608 4.77803 67.4055 4.8477 67.9122 4.98703C68.4315 5.12636 68.8875 5.3417 69.2802 5.63303C69.6855 5.92436 70.0148 6.29803 70.2682 6.75403C70.5342 7.19736 70.7115 7.72937 70.8002 8.35003H67.9882C67.9248 8.04603 67.7348 7.7737 67.4182 7.53303C67.1142 7.29236 66.7152 7.17203 66.2212 7.17203C65.8032 7.17203 65.4422 7.24803 65.1382 7.40003C64.8342 7.55203 64.5935 7.76103 64.4162 8.02703C64.2388 8.29303 64.1122 8.59703 64.0362 8.93903C63.9602 9.28103 63.9222 9.64203 63.9222 10.022C63.9222 10.4274 63.9665 10.801 64.0552 11.143C64.1438 11.4724 64.2768 11.7637 64.4542 12.017C64.6315 12.2577 64.8658 12.4477 65.1572 12.587C65.4612 12.7137 65.8222 12.777 66.2402 12.777Z" fill="white"></path><path d="M76.1274 6.92503C75.9374 6.92503 75.7538 6.9377 75.5764 6.96303C75.4118 6.98836 75.2598 7.0327 75.1204 7.09603C74.9811 7.1467 74.8671 7.23536 74.7784 7.36203C74.6898 7.47603 74.6518 7.62803 74.6644 7.81803C74.6771 8.03336 74.7594 8.20436 74.9114 8.33103C75.0761 8.4577 75.3041 8.55903 75.5954 8.63503C75.8741 8.71103 76.1844 8.78703 76.5264 8.86303C76.8684 8.92636 77.2041 8.99603 77.5334 9.07203C77.8628 9.14803 78.1858 9.2367 78.5024 9.33803C78.8191 9.43936 79.0978 9.56603 79.3384 9.71803C79.6678 9.9207 79.9401 10.2057 80.1554 10.573C80.3708 10.9404 80.4721 11.39 80.4594 11.922C80.4594 12.4414 80.3708 12.891 80.1934 13.271C80.0288 13.6384 79.8008 13.955 79.5094 14.221C79.1421 14.5504 78.6798 14.791 78.1224 14.943C77.5651 15.0824 77.0014 15.152 76.4314 15.152C75.7728 15.152 75.1648 15.0824 74.6074 14.943C74.0628 14.8037 73.5624 14.5567 73.1064 14.202C72.7771 13.936 72.4984 13.613 72.2704 13.233C72.0551 12.8404 71.9284 12.3717 71.8904 11.827H74.5884C74.6644 12.2577 74.8734 12.5554 75.2154 12.72C75.5701 12.8847 75.9881 12.967 76.4694 12.967C76.6088 12.967 76.7544 12.9607 76.9064 12.948C77.0711 12.9227 77.2168 12.8847 77.3434 12.834C77.4828 12.7707 77.5968 12.682 77.6854 12.568C77.7868 12.4414 77.8374 12.3084 77.8374 12.169C77.8501 11.8397 77.7361 11.6054 77.4954 11.466C77.2674 11.3267 77.0204 11.2317 76.7544 11.181C76.4884 11.1177 76.2034 11.0544 75.8994 10.991C75.5954 10.9277 75.2914 10.8644 74.9874 10.801C74.6961 10.7377 74.4048 10.6617 74.1134 10.573C73.8221 10.4717 73.5561 10.3387 73.3154 10.174C72.9481 9.94603 72.6378 9.64203 72.3844 9.26203C72.1438 8.88203 72.0424 8.3817 72.0804 7.76103C72.1058 7.21636 72.2388 6.75403 72.4794 6.37403C72.7328 5.98136 73.0431 5.67103 73.4104 5.44303C73.7904 5.20236 74.2148 5.03136 74.6834 4.93003C75.1648 4.8287 75.6524 4.77803 76.1464 4.77803C76.6911 4.77803 77.2041 4.83503 77.6854 4.94903C78.1668 5.06303 78.5848 5.2467 78.9394 5.50003C79.3068 5.75336 79.5981 6.0827 79.8134 6.48803C80.0414 6.89336 80.1681 7.38736 80.1934 7.97003H77.6094C77.5588 7.55203 77.3941 7.27336 77.1154 7.13403C76.8494 6.9947 76.5201 6.92503 76.1274 6.92503Z" fill="white"></path><path d="M2.78594 27.134H8.73295V21.548H11.4879V35H8.73295V29.585H2.78594V35H0.0309448V21.548H2.78594V27.134Z" fill="white"></path><path d="M18.5736 32.777C19.3083 32.777 19.8276 32.587 20.1316 32.207C20.4356 31.8144 20.5749 31.257 20.5496 30.535V24.987H23.2286V30.611C23.2286 31.3077 23.1589 31.903 23.0196 32.397C22.8929 32.891 22.6713 33.3407 22.3546 33.746C22.1139 34.05 21.8479 34.2844 21.5566 34.449C21.2779 34.6137 20.9739 34.753 20.6446 34.867C20.3279 34.9684 19.9859 35.038 19.6186 35.076C19.2639 35.1267 18.9156 35.152 18.5736 35.152C17.7883 35.152 17.0726 35.0444 16.4266 34.829C15.7806 34.6137 15.2423 34.2527 14.8116 33.746C14.4823 33.3407 14.2543 32.891 14.1276 32.397C14.0009 31.903 13.9376 31.3077 13.9376 30.611V24.987H16.6166V30.535C16.6039 31.257 16.7559 31.808 17.0726 32.188C17.3893 32.568 17.8896 32.7644 18.5736 32.777Z" fill="white"></path><path d="M27.9915 26.26C28.3969 25.7787 28.8909 25.4177 29.4735 25.177C30.0689 24.9237 30.6642 24.7907 31.2595 24.778C31.9689 24.7654 32.6275 24.892 33.2355 25.158C33.8435 25.4114 34.3502 25.842 34.7555 26.45C35.0849 26.8934 35.3255 27.419 35.4775 28.027C35.6295 28.6224 35.7055 29.2494 35.7055 29.908C35.7055 30.7314 35.6042 31.485 35.4015 32.169C35.2115 32.8404 34.8822 33.4167 34.4135 33.898C34.0209 34.316 33.5459 34.6327 32.9885 34.848C32.4439 35.0507 31.8929 35.152 31.3355 35.152C30.6895 35.152 30.0815 35.0444 29.5115 34.829C28.9542 34.601 28.4475 34.2147 27.9915 33.67V35H25.3125V21.548H27.9915V26.26ZM27.9915 30.022C28.0042 30.8327 28.2322 31.4914 28.6755 31.998C29.1315 32.5047 29.7585 32.7644 30.5565 32.777C30.9872 32.7897 31.3545 32.7264 31.6585 32.587C31.9625 32.4477 32.2095 32.2514 32.3995 31.998C32.6022 31.732 32.7542 31.428 32.8555 31.086C32.9695 30.744 33.0265 30.3704 33.0265 29.965C33.0265 29.5724 32.9695 29.205 32.8555 28.863C32.7542 28.521 32.5959 28.2234 32.3805 27.97C32.1779 27.7167 31.9245 27.5204 31.6205 27.381C31.3165 27.2417 30.9492 27.172 30.5185 27.172C30.1132 27.172 29.7459 27.248 29.4165 27.4C29.0999 27.552 28.8339 27.761 28.6185 28.027C28.4159 28.2804 28.2575 28.5844 28.1435 28.939C28.0422 29.281 27.9915 29.642 27.9915 30.022Z" fill="white"></path></svg>